# xmcd
#
# Track frame offsets: 
#        150
#        15297
#        29498
#        52609
#        64858
#        100971
#        114959
#        128634
#        145242
#        162506
#        173156
#        190916
#        207474
#        230844
#        247193
#        263586
#        282920
#        297113
#        315817
#        329960
#
# Disc length: 4735 seconds
#
# Revision: 0
# Processed by: cddbd v1.5.1PL0 Copyright (c) Steve Scherf et al.
# Submitted via: ExactAudioCopy v0.95a5
#
DISCID=23127d14
DTITLE=Raspberries - Raspberries Greatest
DYEAR=2005
DGENRE=Pop/Rock
TTITLE0=Go All The Way
TTITLE1=Come Around And See Me
TTITLE2=Don't Want To Say Goodbye
TTITLE3=I Saw The Light
TTITLE4=I Can Remember
TTITLE5=I Wanna Be With You
TTITLE6=Drivin' Around
TTITLE7=Let's Pretend
TTITLE8=I Reach For The Light
TTITLE9=Nobody Knows
TTITLE10=If You Change Your Mind
TTITLE11=Tonight
TTITLE12=I'm A Rocker
TTITLE13=Ecstasy
TTITLE14=Last Dance
TTITLE15=I Don't Know What I Want
TTITLE16=Crusin' Music
TTITLE17=Starting Over
TTITLE18=Party's Over
TTITLE19=Overnight Sensation (Hit Record)
EXTD=
EXTT0=
EXTT1=
EXTT2=
EXTT3=
EXTT4=
EXTT5=
EXTT6=
EXTT7=
EXTT8=
EXTT9=
EXTT10=
EXTT11=
EXTT12=
EXTT13=
EXTT14=
EXTT15=
EXTT16=
EXTT17=
EXTT18=
EXTT19=
PLAYORDER=
